# xmcd
#
# Track frame offsets:
#	150
#	32684
#	58561
#	89126
#	113309
#	131669
#	162436
#	193715
#
# Disc length: 2932 seconds
#
# Revision: 1
# Processed by: cddbd v1.5.2PL0 Copyright (c) Steve Scherf et al.
# Submitted via: audiograbber 1.83.01
#
DISCID=670b7208
DTITLE=Gerry Mulligan - 1954 - 1956
DYEAR=1900
DGENRE=Jazz
TTITLE0=The Red Door
TTITLE1=Blues At The Roots
TTITLE2=Mainstream
TTITLE3=Ain't That The Truth
TTITLE4=Makin' Whoopee
TTITLE5=Elevation
TTITLE6=Igloo
TTITLE7=Lollypop
EXTD=
EXTT0=
EXTT1=
EXTT2=
EXTT3=
EXTT4=
EXTT5=
EXTT6=
EXTT7=
PLAYORDER=
